<?xml version="1.0" encoding="utf-8" standalone="no"?>
<!DOCTYPE svg PUBLIC "-//W3C//DTD SVG 1.1//EN"
  "http://www.w3.org/Graphics/SVG/1.1/DTD/svg11.dtd">
<svg height="345.6pt" version="1.1" viewBox="0 0 460.8 345.6" width="460.8pt" xmlns="http://www.w3.org/2000/svg" xmlns:xlink="http://www.w3.org/1999/xlink">
 <metadata>
  <rdf:RDF xmlns:cc="http://creativecommons.org/ns#" xmlns:dc="http://purl.org/dc/elements/1.1/" xmlns:rdf="http://www.w3.org/1999/02/22-rdf-syntax-ns#">
   <cc:Work>
    <dc:type rdf:resource="http://purl.org/dc/dcmitype/StillImage"/>
    <dc:date>2021-10-15T04:32:32.186607</dc:date>
    <dc:format>image/svg+xml</dc:format>
    <dc:creator>
     <cc:Agent>
      <dc:title>Matplotlib v3.4.3, https://matplotlib.org/</dc:title>
     </cc:Agent>
    </dc:creator>
   </cc:Work>
  </rdf:RDF>
 </metadata>
 <defs>
  <style type="text/css">*{stroke-linecap:butt;stroke-linejoin:round;}</style>
 </defs>
 <g id="figure_1">
  <g id="patch_1">
   <path d="M 0 345.6 
L 460.8 345.6 
L 460.8 0 
L 0 0 
z
" style="fill:#ffffff;"/>
  </g>
  <g id="axes_1">
   <g id="patch_2">
    <path d="M 57.6 307.584 
L 414.72 307.584 
L 414.72 41.472 
L 57.6 41.472 
z
" style="fill:#ffffff;"/>
   </g>
   <g id="matplotlib.axis_1">
    <g id="xtick_1">
     <g id="line2d_1">
      <defs>
       <path d="M 0 0 
L 0 3.5 
" id="m93cdca920c" style="stroke:#000000;stroke-width:0.8;"/>
      </defs>
      <g>
       <use style="stroke:#000000;stroke-width:0.8;" x="105.121005" xlink:href="#m93cdca920c" y="307.584"/>
      </g>
     </g>
     <g id="text_1">
      <!-- 0 -->
      <g transform="translate(101.939755 322.182437)scale(0.1 -0.1)">
       <defs>
        <path d="M 2034 4250 
Q 1547 4250 1301 3770 
Q 1056 3291 1056 2328 
Q 1056 1369 1301 889 
Q 1547 409 2034 409 
Q 2525 409 2770 889 
Q 3016 1369 3016 2328 
Q 3016 3291 2770 3770 
Q 2525 4250 2034 4250 
z
M 2034 4750 
Q 2819 4750 3233 4129 
Q 3647 3509 3647 2328 
Q 3647 1150 3233 529 
Q 2819 -91 2034 -91 
Q 1250 -91 836 529 
Q 422 1150 422 2328 
Q 422 3509 836 4129 
Q 1250 4750 2034 4750 
z
" id="DejaVuSans-30" transform="scale(0.015625)"/>
       </defs>
       <use xlink:href="#DejaVuSans-30"/>
      </g>
     </g>
    </g>
    <g id="xtick_2">
     <g id="line2d_2">
      <g>
       <use style="stroke:#000000;stroke-width:0.8;" x="171.469863" xlink:href="#m93cdca920c" y="307.584"/>
      </g>
     </g>
     <g id="text_2">
      <!-- 2 -->
      <g transform="translate(168.288613 322.182437)scale(0.1 -0.1)">
       <defs>
        <path d="M 1228 531 
L 3431 531 
L 3431 0 
L 469 0 
L 469 531 
Q 828 903 1448 1529 
Q 2069 2156 2228 2338 
Q 2531 2678 2651 2914 
Q 2772 3150 2772 3378 
Q 2772 3750 2511 3984 
Q 2250 4219 1831 4219 
Q 1534 4219 1204 4116 
Q 875 4013 500 3803 
L 500 4441 
Q 881 4594 1212 4672 
Q 1544 4750 1819 4750 
Q 2544 4750 2975 4387 
Q 3406 4025 3406 3419 
Q 3406 3131 3298 2873 
Q 3191 2616 2906 2266 
Q 2828 2175 2409 1742 
Q 1991 1309 1228 531 
z
" id="DejaVuSans-32" transform="scale(0.015625)"/>
       </defs>
       <use xlink:href="#DejaVuSans-32"/>
      </g>
     </g>
    </g>
    <g id="xtick_3">
     <g id="line2d_3">
      <g>
       <use style="stroke:#000000;stroke-width:0.8;" x="237.818721" xlink:href="#m93cdca920c" y="307.584"/>
      </g>
     </g>
     <g id="text_3">
      <!-- 4 -->
      <g transform="translate(234.637471 322.182437)scale(0.1 -0.1)">
       <defs>
        <path d="M 2419 4116 
L 825 1625 
L 2419 1625 
L 2419 4116 
z
M 2253 4666 
L 3047 4666 
L 3047 1625 
L 3713 1625 
L 3713 1100 
L 3047 1100 
L 3047 0 
L 2419 0 
L 2419 1100 
L 313 1100 
L 313 1709 
L 2253 4666 
z
" id="DejaVuSans-34" transform="scale(0.015625)"/>
       </defs>
       <use xlink:href="#DejaVuSans-34"/>
      </g>
     </g>
    </g>
    <g id="xtick_4">
     <g id="line2d_4">
      <g>
       <use style="stroke:#000000;stroke-width:0.8;" x="304.16758" xlink:href="#m93cdca920c" y="307.584"/>
      </g>
     </g>
     <g id="text_4">
      <!-- 6 -->
      <g transform="translate(300.98633 322.182437)scale(0.1 -0.1)">
       <defs>
        <path d="M 2113 2584 
Q 1688 2584 1439 2293 
Q 1191 2003 1191 1497 
Q 1191 994 1439 701 
Q 1688 409 2113 409 
Q 2538 409 2786 701 
Q 3034 994 3034 1497 
Q 3034 2003 2786 2293 
Q 2538 2584 2113 2584 
z
M 3366 4563 
L 3366 3988 
Q 3128 4100 2886 4159 
Q 2644 4219 2406 4219 
Q 1781 4219 1451 3797 
Q 1122 3375 1075 2522 
Q 1259 2794 1537 2939 
Q 1816 3084 2150 3084 
Q 2853 3084 3261 2657 
Q 3669 2231 3669 1497 
Q 3669 778 3244 343 
Q 2819 -91 2113 -91 
Q 1303 -91 875 529 
Q 447 1150 447 2328 
Q 447 3434 972 4092 
Q 1497 4750 2381 4750 
Q 2619 4750 2861 4703 
Q 3103 4656 3366 4563 
z
" id="DejaVuSans-36" transform="scale(0.015625)"/>
       </defs>
       <use xlink:href="#DejaVuSans-36"/>
      </g>
     </g>
    </g>
    <g id="xtick_5">
     <g id="line2d_5">
      <g>
       <use style="stroke:#000000;stroke-width:0.8;" x="370.516438" xlink:href="#m93cdca920c" y="307.584"/>
      </g>
     </g>
     <g id="text_5">
      <!-- 8 -->
      <g transform="translate(367.335188 322.182437)scale(0.1 -0.1)">
       <defs>
        <path d="M 2034 2216 
Q 1584 2216 1326 1975 
Q 1069 1734 1069 1313 
Q 1069 891 1326 650 
Q 1584 409 2034 409 
Q 2484 409 2743 651 
Q 3003 894 3003 1313 
Q 3003 1734 2745 1975 
Q 2488 2216 2034 2216 
z
M 1403 2484 
Q 997 2584 770 2862 
Q 544 3141 544 3541 
Q 544 4100 942 4425 
Q 1341 4750 2034 4750 
Q 2731 4750 3128 4425 
Q 3525 4100 3525 3541 
Q 3525 3141 3298 2862 
Q 3072 2584 2669 2484 
Q 3125 2378 3379 2068 
Q 3634 1759 3634 1313 
Q 3634 634 3220 271 
Q 2806 -91 2034 -91 
Q 1263 -91 848 271 
Q 434 634 434 1313 
Q 434 1759 690 2068 
Q 947 2378 1403 2484 
z
M 1172 3481 
Q 1172 3119 1398 2916 
Q 1625 2713 2034 2713 
Q 2441 2713 2670 2916 
Q 2900 3119 2900 3481 
Q 2900 3844 2670 4047 
Q 2441 4250 2034 4250 
Q 1625 4250 1398 4047 
Q 1172 3844 1172 3481 
z
" id="DejaVuSans-38" transform="scale(0.015625)"/>
       </defs>
       <use xlink:href="#DejaVuSans-38"/>
      </g>
     </g>
    </g>
    <g id="text_6">
     <!-- sepal_length -->
     <g transform="translate(204.413906 335.860562)scale(0.1 -0.1)">
      <defs>
       <path d="M 2834 3397 
L 2834 2853 
Q 2591 2978 2328 3040 
Q 2066 3103 1784 3103 
Q 1356 3103 1142 2972 
Q 928 2841 928 2578 
Q 928 2378 1081 2264 
Q 1234 2150 1697 2047 
L 1894 2003 
Q 2506 1872 2764 1633 
Q 3022 1394 3022 966 
Q 3022 478 2636 193 
Q 2250 -91 1575 -91 
Q 1294 -91 989 -36 
Q 684 19 347 128 
L 347 722 
Q 666 556 975 473 
Q 1284 391 1588 391 
Q 1994 391 2212 530 
Q 2431 669 2431 922 
Q 2431 1156 2273 1281 
Q 2116 1406 1581 1522 
L 1381 1569 
Q 847 1681 609 1914 
Q 372 2147 372 2553 
Q 372 3047 722 3315 
Q 1072 3584 1716 3584 
Q 2034 3584 2315 3537 
Q 2597 3491 2834 3397 
z
" id="DejaVuSans-73" transform="scale(0.015625)"/>
       <path d="M 3597 1894 
L 3597 1613 
L 953 1613 
Q 991 1019 1311 708 
Q 1631 397 2203 397 
Q 2534 397 2845 478 
Q 3156 559 3463 722 
L 3463 178 
Q 3153 47 2828 -22 
Q 2503 -91 2169 -91 
Q 1331 -91 842 396 
Q 353 884 353 1716 
Q 353 2575 817 3079 
Q 1281 3584 2069 3584 
Q 2775 3584 3186 3129 
Q 3597 2675 3597 1894 
z
M 3022 2063 
Q 3016 2534 2758 2815 
Q 2500 3097 2075 3097 
Q 1594 3097 1305 2825 
Q 1016 2553 972 2059 
L 3022 2063 
z
" id="DejaVuSans-65" transform="scale(0.015625)"/>
       <path d="M 1159 525 
L 1159 -1331 
L 581 -1331 
L 581 3500 
L 1159 3500 
L 1159 2969 
Q 1341 3281 1617 3432 
Q 1894 3584 2278 3584 
Q 2916 3584 3314 3078 
Q 3713 2572 3713 1747 
Q 3713 922 3314 415 
Q 2916 -91 2278 -91 
Q 1894 -91 1617 61 
Q 1341 213 1159 525 
z
M 3116 1747 
Q 3116 2381 2855 2742 
Q 2594 3103 2138 3103 
Q 1681 3103 1420 2742 
Q 1159 2381 1159 1747 
Q 1159 1113 1420 752 
Q 1681 391 2138 391 
Q 2594 391 2855 752 
Q 3116 1113 3116 1747 
z
" id="DejaVuSans-70" transform="scale(0.015625)"/>
       <path d="M 2194 1759 
Q 1497 1759 1228 1600 
Q 959 1441 959 1056 
Q 959 750 1161 570 
Q 1363 391 1709 391 
Q 2188 391 2477 730 
Q 2766 1069 2766 1631 
L 2766 1759 
L 2194 1759 
z
M 3341 1997 
L 3341 0 
L 2766 0 
L 2766 531 
Q 2569 213 2275 61 
Q 1981 -91 1556 -91 
Q 1019 -91 701 211 
Q 384 513 384 1019 
Q 384 1609 779 1909 
Q 1175 2209 1959 2209 
L 2766 2209 
L 2766 2266 
Q 2766 2663 2505 2880 
Q 2244 3097 1772 3097 
Q 1472 3097 1187 3025 
Q 903 2953 641 2809 
L 641 3341 
Q 956 3463 1253 3523 
Q 1550 3584 1831 3584 
Q 2591 3584 2966 3190 
Q 3341 2797 3341 1997 
z
" id="DejaVuSans-61" transform="scale(0.015625)"/>
       <path d="M 603 4863 
L 1178 4863 
L 1178 0 
L 603 0 
L 603 4863 
z
" id="DejaVuSans-6c" transform="scale(0.015625)"/>
       <path d="M 3263 -1063 
L 3263 -1509 
L -63 -1509 
L -63 -1063 
L 3263 -1063 
z
" id="DejaVuSans-5f" transform="scale(0.015625)"/>
       <path d="M 3513 2113 
L 3513 0 
L 2938 0 
L 2938 2094 
Q 2938 2591 2744 2837 
Q 2550 3084 2163 3084 
Q 1697 3084 1428 2787 
Q 1159 2491 1159 1978 
L 1159 0 
L 581 0 
L 581 3500 
L 1159 3500 
L 1159 2956 
Q 1366 3272 1645 3428 
Q 1925 3584 2291 3584 
Q 2894 3584 3203 3211 
Q 3513 2838 3513 2113 
z
" id="DejaVuSans-6e" transform="scale(0.015625)"/>
       <path d="M 2906 1791 
Q 2906 2416 2648 2759 
Q 2391 3103 1925 3103 
Q 1463 3103 1205 2759 
Q 947 2416 947 1791 
Q 947 1169 1205 825 
Q 1463 481 1925 481 
Q 2391 481 2648 825 
Q 2906 1169 2906 1791 
z
M 3481 434 
Q 3481 -459 3084 -895 
Q 2688 -1331 1869 -1331 
Q 1566 -1331 1297 -1286 
Q 1028 -1241 775 -1147 
L 775 -588 
Q 1028 -725 1275 -790 
Q 1522 -856 1778 -856 
Q 2344 -856 2625 -561 
Q 2906 -266 2906 331 
L 2906 616 
Q 2728 306 2450 153 
Q 2172 0 1784 0 
Q 1141 0 747 490 
Q 353 981 353 1791 
Q 353 2603 747 3093 
Q 1141 3584 1784 3584 
Q 2172 3584 2450 3431 
Q 2728 3278 2906 2969 
L 2906 3500 
L 3481 3500 
L 3481 434 
z
" id="DejaVuSans-67" transform="scale(0.015625)"/>
       <path d="M 1172 4494 
L 1172 3500 
L 2356 3500 
L 2356 3053 
L 1172 3053 
L 1172 1153 
Q 1172 725 1289 603 
Q 1406 481 1766 481 
L 2356 481 
L 2356 0 
L 1766 0 
Q 1100 0 847 248 
Q 594 497 594 1153 
L 594 3053 
L 172 3053 
L 172 3500 
L 594 3500 
L 594 4494 
L 1172 4494 
z
" id="DejaVuSans-74" transform="scale(0.015625)"/>
       <path d="M 3513 2113 
L 3513 0 
L 2938 0 
L 2938 2094 
Q 2938 2591 2744 2837 
Q 2550 3084 2163 3084 
Q 1697 3084 1428 2787 
Q 1159 2491 1159 1978 
L 1159 0 
L 581 0 
L 581 4863 
L 1159 4863 
L 1159 2956 
Q 1366 3272 1645 3428 
Q 1925 3584 2291 3584 
Q 2894 3584 3203 3211 
Q 3513 2838 3513 2113 
z
" id="DejaVuSans-68" transform="scale(0.015625)"/>
      </defs>
      <use xlink:href="#DejaVuSans-73"/>
      <use x="52.099609" xlink:href="#DejaVuSans-65"/>
      <use x="113.623047" xlink:href="#DejaVuSans-70"/>
      <use x="177.099609" xlink:href="#DejaVuSans-61"/>
      <use x="238.378906" xlink:href="#DejaVuSans-6c"/>
      <use x="266.162109" xlink:href="#DejaVuSans-5f"/>
      <use x="316.162109" xlink:href="#DejaVuSans-6c"/>
      <use x="343.945312" xlink:href="#DejaVuSans-65"/>
      <use x="405.46875" xlink:href="#DejaVuSans-6e"/>
      <use x="468.847656" xlink:href="#DejaVuSans-67"/>
      <use x="532.324219" xlink:href="#DejaVuSans-74"/>
      <use x="571.533203" xlink:href="#DejaVuSans-68"/>
     </g>
    </g>
   </g>
   <g id="matplotlib.axis_2">
    <g id="ytick_1">
     <g id="line2d_6">
      <defs>
       <path d="M 0 0 
L -3.5 0 
" id="mfa228181cb" style="stroke:#000000;stroke-width:0.8;"/>
      </defs>
      <g>
       <use style="stroke:#000000;stroke-width:0.8;" x="57.6" xlink:href="#mfa228181cb" y="307.584"/>
      </g>
     </g>
     <g id="text_7">
      <!-- 0.0 -->
      <g transform="translate(34.696875 311.383219)scale(0.1 -0.1)">
       <defs>
        <path d="M 684 794 
L 1344 794 
L 1344 0 
L 684 0 
L 684 794 
z
" id="DejaVuSans-2e" transform="scale(0.015625)"/>
       </defs>
       <use xlink:href="#DejaVuSans-30"/>
       <use x="63.623047" xlink:href="#DejaVuSans-2e"/>
       <use x="95.410156" xlink:href="#DejaVuSans-30"/>
      </g>
     </g>
    </g>
    <g id="ytick_2">
     <g id="line2d_7">
      <g>
       <use style="stroke:#000000;stroke-width:0.8;" x="57.6" xlink:href="#mfa228181cb" y="256.756558"/>
      </g>
     </g>
     <g id="text_8">
      <!-- 0.2 -->
      <g transform="translate(34.696875 260.555777)scale(0.1 -0.1)">
       <use xlink:href="#DejaVuSans-30"/>
       <use x="63.623047" xlink:href="#DejaVuSans-2e"/>
       <use x="95.410156" xlink:href="#DejaVuSans-32"/>
      </g>
     </g>
    </g>
    <g id="ytick_3">
     <g id="line2d_8">
      <g>
       <use style="stroke:#000000;stroke-width:0.8;" x="57.6" xlink:href="#mfa228181cb" y="205.929116"/>
      </g>
     </g>
     <g id="text_9">
      <!-- 0.4 -->
      <g transform="translate(34.696875 209.728335)scale(0.1 -0.1)">
       <use xlink:href="#DejaVuSans-30"/>
       <use x="63.623047" xlink:href="#DejaVuSans-2e"/>
       <use x="95.410156" xlink:href="#DejaVuSans-34"/>
      </g>
     </g>
    </g>
    <g id="ytick_4">
     <g id="line2d_9">
      <g>
       <use style="stroke:#000000;stroke-width:0.8;" x="57.6" xlink:href="#mfa228181cb" y="155.101674"/>
      </g>
     </g>
     <g id="text_10">
      <!-- 0.6 -->
      <g transform="translate(34.696875 158.900893)scale(0.1 -0.1)">
       <use xlink:href="#DejaVuSans-30"/>
       <use x="63.623047" xlink:href="#DejaVuSans-2e"/>
       <use x="95.410156" xlink:href="#DejaVuSans-36"/>
      </g>
     </g>
    </g>
    <g id="ytick_5">
     <g id="line2d_10">
      <g>
       <use style="stroke:#000000;stroke-width:0.8;" x="57.6" xlink:href="#mfa228181cb" y="104.274232"/>
      </g>
     </g>
     <g id="text_11">
      <!-- 0.8 -->
      <g transform="translate(34.696875 108.073451)scale(0.1 -0.1)">
       <use xlink:href="#DejaVuSans-30"/>
       <use x="63.623047" xlink:href="#DejaVuSans-2e"/>
       <use x="95.410156" xlink:href="#DejaVuSans-38"/>
      </g>
     </g>
    </g>
    <g id="ytick_6">
     <g id="line2d_11">
      <g>
       <use style="stroke:#000000;stroke-width:0.8;" x="57.6" xlink:href="#mfa228181cb" y="53.446791"/>
      </g>
     </g>
     <g id="text_12">
      <!-- 1.0 -->
      <g transform="translate(34.696875 57.246009)scale(0.1 -0.1)">
       <defs>
        <path d="M 794 531 
L 1825 531 
L 1825 4091 
L 703 3866 
L 703 4441 
L 1819 4666 
L 2450 4666 
L 2450 531 
L 3481 531 
L 3481 0 
L 794 0 
L 794 531 
z
" id="DejaVuSans-31" transform="scale(0.015625)"/>
       </defs>
       <use xlink:href="#DejaVuSans-31"/>
       <use x="63.623047" xlink:href="#DejaVuSans-2e"/>
       <use x="95.410156" xlink:href="#DejaVuSans-30"/>
      </g>
     </g>
    </g>
    <g id="text_13">
     <!-- Density -->
     <g transform="translate(28.617187 193.536594)rotate(-90)scale(0.1 -0.1)">
      <defs>
       <path d="M 1259 4147 
L 1259 519 
L 2022 519 
Q 2988 519 3436 956 
Q 3884 1394 3884 2338 
Q 3884 3275 3436 3711 
Q 2988 4147 2022 4147 
L 1259 4147 
z
M 628 4666 
L 1925 4666 
Q 3281 4666 3915 4102 
Q 4550 3538 4550 2338 
Q 4550 1131 3912 565 
Q 3275 0 1925 0 
L 628 0 
L 628 4666 
z
" id="DejaVuSans-44" transform="scale(0.015625)"/>
       <path d="M 603 3500 
L 1178 3500 
L 1178 0 
L 603 0 
L 603 3500 
z
M 603 4863 
L 1178 4863 
L 1178 4134 
L 603 4134 
L 603 4863 
z
" id="DejaVuSans-69" transform="scale(0.015625)"/>
       <path d="M 2059 -325 
Q 1816 -950 1584 -1140 
Q 1353 -1331 966 -1331 
L 506 -1331 
L 506 -850 
L 844 -850 
Q 1081 -850 1212 -737 
Q 1344 -625 1503 -206 
L 1606 56 
L 191 3500 
L 800 3500 
L 1894 763 
L 2988 3500 
L 3597 3500 
L 2059 -325 
z
" id="DejaVuSans-79" transform="scale(0.015625)"/>
      </defs>
      <use xlink:href="#DejaVuSans-44"/>
      <use x="77.001953" xlink:href="#DejaVuSans-65"/>
      <use x="138.525391" xlink:href="#DejaVuSans-6e"/>
      <use x="201.904297" xlink:href="#DejaVuSans-73"/>
      <use x="254.003906" xlink:href="#DejaVuSans-69"/>
      <use x="281.787109" xlink:href="#DejaVuSans-74"/>
      <use x="320.996094" xlink:href="#DejaVuSans-79"/>
     </g>
    </g>
   </g>
   <g id="line2d_12">
    <path clip-path="url(#pa7ffcf5d47)" d="M 217.517839 307.526518 
L 222.038803 307.358284 
L 225.655574 306.991209 
L 228.368152 306.446986 
L 230.176538 305.886862 
L 231.984924 305.116235 
L 233.793309 304.085663 
L 235.601695 302.744779 
L 237.41008 301.045447 
L 239.218466 298.944896 
L 241.026852 296.408297 
L 242.835237 293.410405 
L 244.643623 289.936144 
L 246.452009 285.980435 
L 248.260394 281.547966 
L 250.06878 276.65379 
L 252.781358 268.511823 
L 255.493937 259.567751 
L 263.631672 231.678368 
L 265.440057 226.330658 
L 267.248443 221.673677 
L 269.056829 217.826057 
L 270.865214 214.840927 
L 271.769407 213.667804 
L 272.6736 212.695998 
L 273.577793 211.91132 
L 274.481985 211.295871 
L 275.386178 210.828793 
L 277.194564 210.246865 
L 279.002949 209.97461 
L 284.428106 209.4543 
L 287.140685 208.905524 
L 292.565841 207.696727 
L 294.374227 207.488873 
L 297.086805 207.457826 
L 299.799384 207.702533 
L 304.320348 208.38935 
L 307.937119 209.105601 
L 309.745505 209.629788 
L 311.55389 210.372 
L 313.362276 211.423876 
L 315.170662 212.869637 
L 316.979047 214.774509 
L 318.787433 217.177161 
L 320.595818 220.08673 
L 322.404204 223.483858 
L 324.21259 227.324376 
L 326.925168 233.771921 
L 330.541939 243.206112 
L 335.967096 257.568561 
L 338.679674 264.138564 
L 340.48806 268.108097 
L 342.296446 271.686625 
L 344.104831 274.844633 
L 345.913217 277.57586 
L 347.721602 279.8974 
L 349.529988 281.8484 
L 351.338374 283.487263 
L 354.050952 285.523133 
L 362.188687 291.045039 
L 364.901266 293.268242 
L 369.42223 297.348373 
L 373.039001 300.511639 
L 375.751579 302.561321 
L 377.559965 303.712818 
L 379.368351 304.677949 
L 381.176736 305.459985 
L 383.889315 306.322423 
L 386.601893 306.879391 
L 389.314471 307.214186 
L 392.931243 307.442011 
L 397.452207 307.547397 
L 397.452207 307.547397 
" style="fill:none;stroke:#1f77b4;stroke-linecap:square;stroke-width:1.5;"/>
   </g>
   <g id="line2d_13">
    <path clip-path="url(#pa7ffcf5d47)" d="M 155.628592 307.535229 
L 158.425104 307.36956 
L 160.662313 306.998809 
L 162.34022 306.456988 
L 163.458825 305.911911 
L 164.57743 305.178462 
L 165.696034 304.21803 
L 166.814639 302.988365 
L 167.933244 301.442446 
L 169.051849 299.528089 
L 170.170453 297.189776 
L 171.289058 294.373844 
L 172.407663 291.036971 
L 173.526268 287.156204 
L 175.204175 280.336616 
L 176.882082 272.462831 
L 179.119291 260.770111 
L 182.475106 241.719787 
L 185.271618 224.652108 
L 187.508827 209.693777 
L 189.186734 197.215698 
L 190.864641 183.207233 
L 192.542548 167.333345 
L 194.220456 149.505154 
L 196.457665 123.296935 
L 199.813479 83.815065 
L 200.932084 72.684838 
L 202.050689 63.665204 
L 202.609991 60.150087 
L 203.169294 57.392188 
L 203.728596 55.447465 
L 204.287898 54.356637 
L 204.847201 54.142811 
L 205.406503 54.809836 
L 205.965806 56.341549 
L 206.525108 58.702005 
L 207.08441 61.83671 
L 208.203015 70.132032 
L 209.32162 80.522476 
L 211.558829 104.451734 
L 214.355341 134.014582 
L 216.592551 155.181934 
L 219.948365 184.610196 
L 222.185574 203.101168 
L 223.863482 215.479067 
L 225.541389 225.880907 
L 226.659993 231.640619 
L 228.337901 238.84491 
L 235.049529 264.925922 
L 237.846041 276.378867 
L 239.523948 282.228821 
L 240.642553 285.523108 
L 241.761158 288.32789 
L 242.879762 290.685244 
L 243.998367 292.659523 
L 245.676274 295.058726 
L 247.354181 296.98225 
L 249.591391 299.123197 
L 253.506508 302.4425 
L 256.303019 304.553962 
L 257.980927 305.583268 
L 259.658834 306.369186 
L 261.336741 306.909561 
L 263.014648 307.242956 
L 265.251857 307.465699 
L 266.929765 307.536304 
L 266.929765 307.536304 
" style="fill:none;stroke:#ff7f0e;stroke-linecap:square;stroke-width:1.5;"/>
   </g>
   <g id="line2d_14">
    <path clip-path="url(#pa7ffcf5d47)" d="M 73.832727 307.503934 
L 81.989877 307.305355 
L 86.884166 307.031614 
L 91.778456 306.540298 
L 95.041316 306.0309 
L 98.304175 305.321789 
L 101.567035 304.358707 
L 104.829895 303.083098 
L 108.092755 301.436247 
L 111.355614 299.365134 
L 114.618474 296.829787 
L 117.881334 293.811597 
L 121.144194 290.321686 
L 124.407053 286.408137 
L 127.669913 282.160704 
L 137.458492 268.922504 
L 140.721352 264.99873 
L 142.352782 263.248928 
L 143.984212 261.674454 
L 145.615642 260.298427 
L 147.247072 259.141382 
L 148.878502 258.22073 
L 150.509931 257.550293 
L 152.141361 257.139912 
L 153.772791 256.995166 
L 155.404221 257.117194 
L 157.035651 257.502641 
L 158.667081 258.143711 
L 160.298511 259.028348 
L 161.929941 260.140521 
L 163.56137 261.460606 
L 165.1928 262.965858 
L 168.45566 266.428532 
L 171.71852 270.305558 
L 179.875669 280.286288 
L 183.138529 283.840516 
L 186.401389 286.894378 
L 188.032819 288.197405 
L 189.664249 289.337125 
L 191.295678 290.306191 
L 192.927108 291.099626 
L 194.558538 291.714636 
L 196.189968 292.150397 
L 197.821398 292.407835 
L 199.452828 292.489398 
L 201.084258 292.398831 
L 202.715688 292.140968 
L 204.347117 291.721541 
L 205.978547 291.147012 
L 207.609977 290.424429 
L 209.241407 289.561307 
L 212.504267 287.445331 
L 215.767127 284.865691 
L 219.029986 281.892939 
L 222.292846 278.601319 
L 227.187136 273.23806 
L 240.238575 258.474089 
L 243.501434 255.157736 
L 246.764294 252.160398 
L 250.027154 249.554259 
L 253.290014 247.399674 
L 254.921444 246.506759 
L 256.552873 245.742873 
L 258.184303 245.111344 
L 259.815733 244.614488 
L 261.447163 244.253611 
L 263.078593 244.029037 
L 264.710023 243.94014 
L 266.341453 243.9854 
L 267.972883 244.162455 
L 269.604312 244.468178 
L 271.235742 244.898749 
L 274.498602 246.116167 
L 277.761462 247.773341 
L 281.024322 249.822876 
L 284.287181 252.213565 
L 287.550041 254.892175 
L 290.812901 257.804758 
L 295.70719 262.494996 
L 303.86434 270.736537 
L 312.021489 278.863309 
L 316.915779 283.422768 
L 321.810069 287.622214 
L 325.072928 290.189023 
L 328.335788 292.555517 
L 331.598648 294.715847 
L 334.861508 296.668844 
L 338.124367 298.417189 
L 341.387227 299.966638 
L 344.650087 301.325368 
L 347.912947 302.50348 
L 351.175806 303.512628 
L 356.070096 304.738109 
L 360.964386 305.660368 
L 365.858675 306.329879 
L 370.752965 306.7972 
L 377.278684 307.187334 
L 385.435834 307.432613 
L 398.487273 307.559031 
L 398.487273 307.559031 
" style="fill:none;stroke:#2ca02c;stroke-linecap:square;stroke-width:1.5;"/>
   </g>
   <g id="line2d_15">
    <path clip-path="url(#pa7ffcf5d47)" d="M 80.55654 307.160372 
L 82.597482 306.740024 
L 83.958109 306.281401 
L 85.318737 305.614138 
L 86.679364 304.665124 
L 88.039992 303.345994 
L 89.400619 301.554442 
L 90.761247 299.177777 
L 92.121875 296.099229 
L 93.482502 292.207201 
L 94.84313 287.407332 
L 96.203757 281.636676 
L 97.564385 274.878782 
L 98.925013 267.177883 
L 100.965954 254.133694 
L 107.088778 212.822602 
L 108.449406 205.583368 
L 109.810033 199.875809 
L 110.490347 197.68875 
L 111.170661 195.983525 
L 111.850975 194.779438 
L 112.531288 194.088188 
L 113.211602 193.913544 
L 113.891916 194.251198 
L 114.57223 195.088813 
L 115.252544 196.406252 
L 115.932857 198.175986 
L 116.613171 200.363663 
L 117.973799 205.825728 
L 119.334426 212.411096 
L 122.735995 230.893579 
L 124.776937 241.169711 
L 126.137564 246.890173 
L 127.498192 251.381566 
L 128.178506 253.105013 
L 128.85882 254.458188 
L 129.539133 255.431051 
L 130.219447 256.018599 
L 130.899761 256.220638 
L 131.580075 256.041512 
L 132.260389 255.489786 
L 132.940702 254.577912 
L 133.621016 253.321876 
L 134.30133 251.740834 
L 135.661958 247.694027 
L 137.022585 242.6404 
L 139.063526 233.681981 
L 145.186351 204.722717 
L 146.546978 199.330375 
L 147.907606 194.697201 
L 149.268233 190.922691 
L 150.628861 188.058355 
L 151.309175 186.970464 
L 151.989489 186.107961 
L 152.669802 185.464479 
L 153.350116 185.031332 
L 154.03043 184.797808 
L 154.710744 184.751499 
L 155.391058 184.878662 
L 156.071371 185.164588 
L 157.431999 186.15137 
L 158.792627 187.589179 
L 160.153254 189.36285 
L 162.194195 192.442823 
L 164.915451 196.995412 
L 168.31702 203.149561 
L 171.038275 208.578614 
L 173.079216 213.116824 
L 175.120158 218.185709 
L 177.161099 223.877061 
L 179.20204 230.23761 
L 181.242982 237.251865 
L 183.964237 247.452581 
L 191.447689 276.465088 
L 193.48863 283.330776 
L 195.529571 289.308669 
L 196.890199 292.743953 
L 198.250827 295.726575 
L 199.611454 298.265154 
L 200.972082 300.382917 
L 202.332709 302.114358 
L 203.693337 303.501566 
L 205.053965 304.590609 
L 206.414592 305.428312 
L 207.77522 306.059633 
L 209.816161 306.708406 
L 211.857103 307.101806 
L 214.578358 307.380344 
L 215.938985 307.45541 
L 215.938985 307.45541 
" style="fill:none;stroke:#d62728;stroke-linecap:square;stroke-width:1.5;"/>
   </g>
   <g id="patch_3">
    <path d="M 57.6 307.584 
L 57.6 41.472 
" style="fill:none;stroke:#000000;stroke-linecap:square;stroke-linejoin:miter;stroke-width:0.8;"/>
   </g>
   <g id="patch_4">
    <path d="M 414.72 307.584 
L 414.72 41.472 
" style="fill:none;stroke:#000000;stroke-linecap:square;stroke-linejoin:miter;stroke-width:0.8;"/>
   </g>
   <g id="patch_5">
    <path d="M 57.6 307.584 
L 414.72 307.584 
" style="fill:none;stroke:#000000;stroke-linecap:square;stroke-linejoin:miter;stroke-width:0.8;"/>
   </g>
   <g id="patch_6">
    <path d="M 57.6 41.472 
L 414.72 41.472 
" style="fill:none;stroke:#000000;stroke-linecap:square;stroke-linejoin:miter;stroke-width:0.8;"/>
   </g>
   <g id="text_14">
    <!-- Density Plot with Numerical Attributes -->
    <g transform="translate(121.463437 35.472)scale(0.12 -0.12)">
     <defs>
      <path id="DejaVuSans-20" transform="scale(0.015625)"/>
      <path d="M 1259 4147 
L 1259 2394 
L 2053 2394 
Q 2494 2394 2734 2622 
Q 2975 2850 2975 3272 
Q 2975 3691 2734 3919 
Q 2494 4147 2053 4147 
L 1259 4147 
z
M 628 4666 
L 2053 4666 
Q 2838 4666 3239 4311 
Q 3641 3956 3641 3272 
Q 3641 2581 3239 2228 
Q 2838 1875 2053 1875 
L 1259 1875 
L 1259 0 
L 628 0 
L 628 4666 
z
" id="DejaVuSans-50" transform="scale(0.015625)"/>
      <path d="M 1959 3097 
Q 1497 3097 1228 2736 
Q 959 2375 959 1747 
Q 959 1119 1226 758 
Q 1494 397 1959 397 
Q 2419 397 2687 759 
Q 2956 1122 2956 1747 
Q 2956 2369 2687 2733 
Q 2419 3097 1959 3097 
z
M 1959 3584 
Q 2709 3584 3137 3096 
Q 3566 2609 3566 1747 
Q 3566 888 3137 398 
Q 2709 -91 1959 -91 
Q 1206 -91 779 398 
Q 353 888 353 1747 
Q 353 2609 779 3096 
Q 1206 3584 1959 3584 
z
" id="DejaVuSans-6f" transform="scale(0.015625)"/>
      <path d="M 269 3500 
L 844 3500 
L 1563 769 
L 2278 3500 
L 2956 3500 
L 3675 769 
L 4391 3500 
L 4966 3500 
L 4050 0 
L 3372 0 
L 2619 2869 
L 1863 0 
L 1184 0 
L 269 3500 
z
" id="DejaVuSans-77" transform="scale(0.015625)"/>
      <path d="M 628 4666 
L 1478 4666 
L 3547 763 
L 3547 4666 
L 4159 4666 
L 4159 0 
L 3309 0 
L 1241 3903 
L 1241 0 
L 628 0 
L 628 4666 
z
" id="DejaVuSans-4e" transform="scale(0.015625)"/>
      <path d="M 544 1381 
L 544 3500 
L 1119 3500 
L 1119 1403 
Q 1119 906 1312 657 
Q 1506 409 1894 409 
Q 2359 409 2629 706 
Q 2900 1003 2900 1516 
L 2900 3500 
L 3475 3500 
L 3475 0 
L 2900 0 
L 2900 538 
Q 2691 219 2414 64 
Q 2138 -91 1772 -91 
Q 1169 -91 856 284 
Q 544 659 544 1381 
z
M 1991 3584 
L 1991 3584 
z
" id="DejaVuSans-75" transform="scale(0.015625)"/>
      <path d="M 3328 2828 
Q 3544 3216 3844 3400 
Q 4144 3584 4550 3584 
Q 5097 3584 5394 3201 
Q 5691 2819 5691 2113 
L 5691 0 
L 5113 0 
L 5113 2094 
Q 5113 2597 4934 2840 
Q 4756 3084 4391 3084 
Q 3944 3084 3684 2787 
Q 3425 2491 3425 1978 
L 3425 0 
L 2847 0 
L 2847 2094 
Q 2847 2600 2669 2842 
Q 2491 3084 2119 3084 
Q 1678 3084 1418 2786 
Q 1159 2488 1159 1978 
L 1159 0 
L 581 0 
L 581 3500 
L 1159 3500 
L 1159 2956 
Q 1356 3278 1631 3431 
Q 1906 3584 2284 3584 
Q 2666 3584 2933 3390 
Q 3200 3197 3328 2828 
z
" id="DejaVuSans-6d" transform="scale(0.015625)"/>
      <path d="M 2631 2963 
Q 2534 3019 2420 3045 
Q 2306 3072 2169 3072 
Q 1681 3072 1420 2755 
Q 1159 2438 1159 1844 
L 1159 0 
L 581 0 
L 581 3500 
L 1159 3500 
L 1159 2956 
Q 1341 3275 1631 3429 
Q 1922 3584 2338 3584 
Q 2397 3584 2469 3576 
Q 2541 3569 2628 3553 
L 2631 2963 
z
" id="DejaVuSans-72" transform="scale(0.015625)"/>
      <path d="M 3122 3366 
L 3122 2828 
Q 2878 2963 2633 3030 
Q 2388 3097 2138 3097 
Q 1578 3097 1268 2742 
Q 959 2388 959 1747 
Q 959 1106 1268 751 
Q 1578 397 2138 397 
Q 2388 397 2633 464 
Q 2878 531 3122 666 
L 3122 134 
Q 2881 22 2623 -34 
Q 2366 -91 2075 -91 
Q 1284 -91 818 406 
Q 353 903 353 1747 
Q 353 2603 823 3093 
Q 1294 3584 2113 3584 
Q 2378 3584 2631 3529 
Q 2884 3475 3122 3366 
z
" id="DejaVuSans-63" transform="scale(0.015625)"/>
      <path d="M 2188 4044 
L 1331 1722 
L 3047 1722 
L 2188 4044 
z
M 1831 4666 
L 2547 4666 
L 4325 0 
L 3669 0 
L 3244 1197 
L 1141 1197 
L 716 0 
L 50 0 
L 1831 4666 
z
" id="DejaVuSans-41" transform="scale(0.015625)"/>
      <path d="M 3116 1747 
Q 3116 2381 2855 2742 
Q 2594 3103 2138 3103 
Q 1681 3103 1420 2742 
Q 1159 2381 1159 1747 
Q 1159 1113 1420 752 
Q 1681 391 2138 391 
Q 2594 391 2855 752 
Q 3116 1113 3116 1747 
z
M 1159 2969 
Q 1341 3281 1617 3432 
Q 1894 3584 2278 3584 
Q 2916 3584 3314 3078 
Q 3713 2572 3713 1747 
Q 3713 922 3314 415 
Q 2916 -91 2278 -91 
Q 1894 -91 1617 61 
Q 1341 213 1159 525 
L 1159 0 
L 581 0 
L 581 4863 
L 1159 4863 
L 1159 2969 
z
" id="DejaVuSans-62" transform="scale(0.015625)"/>
     </defs>
     <use xlink:href="#DejaVuSans-44"/>
     <use x="77.001953" xlink:href="#DejaVuSans-65"/>
     <use x="138.525391" xlink:href="#DejaVuSans-6e"/>
     <use x="201.904297" xlink:href="#DejaVuSans-73"/>
     <use x="254.003906" xlink:href="#DejaVuSans-69"/>
     <use x="281.787109" xlink:href="#DejaVuSans-74"/>
     <use x="320.996094" xlink:href="#DejaVuSans-79"/>
     <use x="380.175781" xlink:href="#DejaVuSans-20"/>
     <use x="411.962891" xlink:href="#DejaVuSans-50"/>
     <use x="472.265625" xlink:href="#DejaVuSans-6c"/>
     <use x="500.048828" xlink:href="#DejaVuSans-6f"/>
     <use x="561.230469" xlink:href="#DejaVuSans-74"/>
     <use x="600.439453" xlink:href="#DejaVuSans-20"/>
     <use x="632.226562" xlink:href="#DejaVuSans-77"/>
     <use x="714.013672" xlink:href="#DejaVuSans-69"/>
     <use x="741.796875" xlink:href="#DejaVuSans-74"/>
     <use x="781.005859" xlink:href="#DejaVuSans-68"/>
     <use x="844.384766" xlink:href="#DejaVuSans-20"/>
     <use x="876.171875" xlink:href="#DejaVuSans-4e"/>
     <use x="950.976562" xlink:href="#DejaVuSans-75"/>
     <use x="1014.355469" xlink:href="#DejaVuSans-6d"/>
     <use x="1111.767578" xlink:href="#DejaVuSans-65"/>
     <use x="1173.291016" xlink:href="#DejaVuSans-72"/>
     <use x="1214.404297" xlink:href="#DejaVuSans-69"/>
     <use x="1242.1875" xlink:href="#DejaVuSans-63"/>
     <use x="1297.167969" xlink:href="#DejaVuSans-61"/>
     <use x="1358.447266" xlink:href="#DejaVuSans-6c"/>
     <use x="1386.230469" xlink:href="#DejaVuSans-20"/>
     <use x="1418.017578" xlink:href="#DejaVuSans-41"/>
     <use x="1484.675781" xlink:href="#DejaVuSans-74"/>
     <use x="1523.884766" xlink:href="#DejaVuSans-74"/>
     <use x="1563.09375" xlink:href="#DejaVuSans-72"/>
     <use x="1604.207031" xlink:href="#DejaVuSans-69"/>
     <use x="1631.990234" xlink:href="#DejaVuSans-62"/>
     <use x="1695.466797" xlink:href="#DejaVuSans-75"/>
     <use x="1758.845703" xlink:href="#DejaVuSans-74"/>
     <use x="1798.054688" xlink:href="#DejaVuSans-65"/>
     <use x="1859.578125" xlink:href="#DejaVuSans-73"/>
    </g>
   </g>
   <g id="legend_1">
    <g id="patch_7">
     <path d="M 353.224688 82.167 
L 410.52 82.167 
Q 411.72 82.167 411.72 80.967 
L 411.72 45.672 
Q 411.72 44.472 410.52 44.472 
L 353.224688 44.472 
Q 352.024688 44.472 352.024688 45.672 
L 352.024688 80.967 
Q 352.024688 82.167 353.224688 82.167 
z
" style="fill:#ffffff;opacity:0.8;stroke:#cccccc;stroke-linejoin:miter;"/>
    </g>
    <g id="line2d_16">
     <path d="M 354.424688 49.331062 
L 366.424688 49.331062 
" style="fill:none;stroke:#1f77b4;stroke-linecap:square;stroke-width:1.5;"/>
    </g>
    <g id="line2d_17"/>
    <g id="text_15">
     <!-- sepal_length -->
     <g transform="translate(371.224688 51.431062)scale(0.06 -0.06)">
      <use xlink:href="#DejaVuSans-73"/>
      <use x="52.099609" xlink:href="#DejaVuSans-65"/>
      <use x="113.623047" xlink:href="#DejaVuSans-70"/>
      <use x="177.099609" xlink:href="#DejaVuSans-61"/>
      <use x="238.378906" xlink:href="#DejaVuSans-6c"/>
      <use x="266.162109" xlink:href="#DejaVuSans-5f"/>
      <use x="316.162109" xlink:href="#DejaVuSans-6c"/>
      <use x="343.945312" xlink:href="#DejaVuSans-65"/>
      <use x="405.46875" xlink:href="#DejaVuSans-6e"/>
      <use x="468.847656" xlink:href="#DejaVuSans-67"/>
      <use x="532.324219" xlink:href="#DejaVuSans-74"/>
      <use x="571.533203" xlink:href="#DejaVuSans-68"/>
     </g>
    </g>
    <g id="line2d_18">
     <path d="M 354.424688 58.304812 
L 366.424688 58.304812 
" style="fill:none;stroke:#ff7f0e;stroke-linecap:square;stroke-width:1.5;"/>
    </g>
    <g id="line2d_19"/>
    <g id="text_16">
     <!-- sepal_width -->
     <g transform="translate(371.224688 60.404812)scale(0.06 -0.06)">
      <defs>
       <path d="M 2906 2969 
L 2906 4863 
L 3481 4863 
L 3481 0 
L 2906 0 
L 2906 525 
Q 2725 213 2448 61 
Q 2172 -91 1784 -91 
Q 1150 -91 751 415 
Q 353 922 353 1747 
Q 353 2572 751 3078 
Q 1150 3584 1784 3584 
Q 2172 3584 2448 3432 
Q 2725 3281 2906 2969 
z
M 947 1747 
Q 947 1113 1208 752 
Q 1469 391 1925 391 
Q 2381 391 2643 752 
Q 2906 1113 2906 1747 
Q 2906 2381 2643 2742 
Q 2381 3103 1925 3103 
Q 1469 3103 1208 2742 
Q 947 2381 947 1747 
z
" id="DejaVuSans-64" transform="scale(0.015625)"/>
      </defs>
      <use xlink:href="#DejaVuSans-73"/>
      <use x="52.099609" xlink:href="#DejaVuSans-65"/>
      <use x="113.623047" xlink:href="#DejaVuSans-70"/>
      <use x="177.099609" xlink:href="#DejaVuSans-61"/>
      <use x="238.378906" xlink:href="#DejaVuSans-6c"/>
      <use x="266.162109" xlink:href="#DejaVuSans-5f"/>
      <use x="316.162109" xlink:href="#DejaVuSans-77"/>
      <use x="397.949219" xlink:href="#DejaVuSans-69"/>
      <use x="425.732422" xlink:href="#DejaVuSans-64"/>
      <use x="489.208984" xlink:href="#DejaVuSans-74"/>
      <use x="528.417969" xlink:href="#DejaVuSans-68"/>
     </g>
    </g>
    <g id="line2d_20">
     <path d="M 354.424688 67.278562 
L 366.424688 67.278562 
" style="fill:none;stroke:#2ca02c;stroke-linecap:square;stroke-width:1.5;"/>
    </g>
    <g id="line2d_21"/>
    <g id="text_17">
     <!-- petal_length -->
     <g transform="translate(371.224688 69.378562)scale(0.06 -0.06)">
      <use xlink:href="#DejaVuSans-70"/>
      <use x="63.476562" xlink:href="#DejaVuSans-65"/>
      <use x="125" xlink:href="#DejaVuSans-74"/>
      <use x="164.208984" xlink:href="#DejaVuSans-61"/>
      <use x="225.488281" xlink:href="#DejaVuSans-6c"/>
      <use x="253.271484" xlink:href="#DejaVuSans-5f"/>
      <use x="303.271484" xlink:href="#DejaVuSans-6c"/>
      <use x="331.054688" xlink:href="#DejaVuSans-65"/>
      <use x="392.578125" xlink:href="#DejaVuSans-6e"/>
      <use x="455.957031" xlink:href="#DejaVuSans-67"/>
      <use x="519.433594" xlink:href="#DejaVuSans-74"/>
      <use x="558.642578" xlink:href="#DejaVuSans-68"/>
     </g>
    </g>
    <g id="line2d_22">
     <path d="M 354.424688 76.252312 
L 366.424688 76.252312 
" style="fill:none;stroke:#d62728;stroke-linecap:square;stroke-width:1.5;"/>
    </g>
    <g id="line2d_23"/>
    <g id="text_18">
     <!-- petal_width -->
     <g transform="translate(371.224688 78.352312)scale(0.06 -0.06)">
      <use xlink:href="#DejaVuSans-70"/>
      <use x="63.476562" xlink:href="#DejaVuSans-65"/>
      <use x="125" xlink:href="#DejaVuSans-74"/>
      <use x="164.208984" xlink:href="#DejaVuSans-61"/>
      <use x="225.488281" xlink:href="#DejaVuSans-6c"/>
      <use x="253.271484" xlink:href="#DejaVuSans-5f"/>
      <use x="303.271484" xlink:href="#DejaVuSans-77"/>
      <use x="385.058594" xlink:href="#DejaVuSans-69"/>
      <use x="412.841797" xlink:href="#DejaVuSans-64"/>
      <use x="476.318359" xlink:href="#DejaVuSans-74"/>
      <use x="515.527344" xlink:href="#DejaVuSans-68"/>
     </g>
    </g>
   </g>
  </g>
 </g>
 <defs>
  <clipPath id="pa7ffcf5d47">
   <rect height="266.112" width="357.12" x="57.6" y="41.472"/>
  </clipPath>
 </defs>
</svg>
